<svg xmlns="http://www.w3.org/2000/svg" width="371" height="371" viewBox="0 0 371 371" version="1.1">
	<path d="M 76.286 1.439 C 66.074 4.658, 58.703 11.142, 54.101 20.954 L 51.500 26.500 51.500 185.500 L 51.500 344.500 54.135 350.120 C 57.842 358.026, 63.130 363.447, 70.837 367.240 L 77.458 370.500 185.979 370.500 L 294.500 370.500 300.160 367.721 C 307.274 364.227, 313.130 358.591, 316.716 351.784 L 319.500 346.500 319.500 185.500 L 319.500 24.500 316.716 19.216 C 313.016 12.194, 307.576 6.920, 300.394 3.394 L 294.500 0.500 187.500 0.306 C 100.899 0.148, 79.697 0.364, 76.286 1.439 M 123 184.979 L 123 360.230 128.250 359.626 C 131.137 359.293, 166.350 357.662, 206.500 356.001 C 246.650 354.340, 281.839 352.731, 284.698 352.425 C 290.726 351.780, 294.623 349.145, 296.621 344.364 C 297.774 341.605, 298 314.236, 298 177.481 L 298 13.898 294.532 12.449 C 291.789 11.303, 285.312 11, 263.532 11 L 236 11 236 60.066 C 236 91.806, 235.636 109.811, 234.970 111.055 C 233.442 113.911, 228.244 116.274, 225.142 115.523 C 223.625 115.156, 217.291 109.706, 210.268 102.725 L 198.036 90.566 185.679 102.783 C 173.947 114.382, 173.116 115, 169.250 115 C 165.930 115, 164.699 114.431, 162.589 111.923 L 160 108.847 160 59.923 L 160 11 146.140 11 C 138.516 11, 130.191 10.714, 127.640 10.364 L 123 9.728 123 184.979 M 75.230 13.115 C 69.950 15.729, 64.299 22.176, 62.973 27.099 C 62.324 29.510, 62.067 85.676, 62.238 187.816 L 62.500 344.828 65.528 349.136 C 67.193 351.506, 70.493 354.807, 72.860 356.472 L 77.164 359.500 94.582 359.814 L 112 360.129 112 185.564 L 112 11 95.750 11.001 C 81.223 11.001, 79.047 11.226, 75.230 13.115 M 171 56.734 L 171 102.467 182.494 91.006 C 193.319 80.212, 194.220 79.545, 197.993 79.545 C 201.661 79.545, 202.673 80.216, 209.999 87.499 L 218 95.453 218 53.227 L 218 11 194.500 11 L 171 11 171 56.734" stroke="none" fill="black" fill-rule="evenodd"/>
</svg>